<svg xmlns="http://www.w3.org/2000/svg" width="17" height="17" viewBox="0 0 17 17"><g><g><path fill="#fff" d="M17 4.288v8.424A4.293 4.293 0 0 1 12.713 17H4.288a4.293 4.293 0 0 1-4.29-4.288V4.288A4.294 4.294 0 0 1 4.289 0h8.424a4.293 4.293 0 0 1 4.289 4.288zm-1.85 0a2.441 2.441 0 0 0-2.438-2.438H4.288a2.441 2.441 0 0 0-2.439 2.438v8.424a2.441 2.441 0 0 0 2.439 2.438h8.424a2.441 2.441 0 0 0 2.439-2.438zm-3.167-.297a1.037 1.037 0 0 1 2.073 0 1.037 1.037 0 0 1-2.073 0zM12.88 8.5a4.384 4.384 0 0 1-4.38 4.378A4.384 4.384 0 0 1 4.122 8.5 4.384 4.384 0 0 1 8.5 4.12 4.384 4.384 0 0 1 12.879 8.5zm-1.85 0a2.531 2.531 0 0 0-2.53-2.528A2.532 2.532 0 0 0 5.972 8.5 2.532 2.532 0 0 0 8.5 11.029a2.532 2.532 0 0 0 2.528-2.53z"/></g></g></svg>