<svg xmlns="http://www.w3.org/2000/svg" width="17" height="14" viewBox="0 0 17 14"><g><g><path fill="#fff" d="M0 12.411A9.776 9.776 0 0 0 5.346 14c6.415 0 9.924-5.385 9.924-10.056 0-.152-.004-.305-.01-.457A7.13 7.13 0 0 0 17 1.656a6.92 6.92 0 0 1-2.003.558A3.539 3.539 0 0 0 16.53.258c-.674.405-1.42.7-2.215.858A3.462 3.462 0 0 0 11.77 0C9.844 0 8.282 1.582 8.282 3.534c0 .277.03.547.09.806C5.474 4.192 2.904 2.784 1.184.647A3.551 3.551 0 0 0 .71 2.423c0 1.226.616 2.308 1.552 2.942a3.431 3.431 0 0 1-1.58-.442v.044c0 1.713 1.202 3.141 2.798 3.466a3.443 3.443 0 0 1-1.576.06c.444 1.404 1.732 2.426 3.259 2.454A6.937 6.937 0 0 1 0 12.411z"/></g></g></svg>