<svg xmlns="http://www.w3.org/2000/svg" width="20" height="14" viewBox="0 0 20 14"><g><g><path fill="#fff" d="M.349 11.747c-.35-1.52-.35-3.182-.35-4.747 0-1.567.005-3.227.354-4.748C.596 1.182 1.467.395 2.513.278 4.993 0 7.503-.002 10.003 0c2.499-.001 5.009 0 7.489.278 1.047.117 1.917.905 2.162 1.974C20.003 3.772 20 5.433 20 7c0 1.565-.001 3.227-.35 4.747-.245 1.069-1.115 1.857-2.162 1.975-2.48.277-4.989.278-7.49.277-2.498.001-5.008 0-7.488-.277-1.047-.118-1.917-.906-2.161-1.975zm7.07-8.272v6.643l6.358-3.311C11.644 5.688 9.538 4.586 7.42 3.475z"/></g></g></svg>