<svg xmlns="http://www.w3.org/2000/svg" width="20" height="12"><path fill="#fff" d="M3.794 8.25c.772 1.11 1.659 2.09 2.805 2.784 1.298.787 2.695 1.025 4.169.952.689-.035.896-.226.927-.953.022-.498.076-.995.307-1.443.228-.44.573-.522.97-.249a2.8 2.8 0 0 1 .524.496c.388.449.763.913 1.165 1.347.505.546 1.104.867 1.856.802h2.913c.469-.032.713-.642.443-1.198-.19-.389-.438-.734-.701-1.069-.595-.759-1.296-1.404-1.96-2.09-.597-.619-.635-.978-.155-1.692.525-.78 1.089-1.528 1.618-2.304.494-.725 1.001-1.448 1.26-2.314.166-.554.02-.798-.514-.896-.092-.016-.188-.016-.282-.016L15.97.403c-.39-.006-.605.174-.743.542-.187.495-.38.99-.602 1.468-.502 1.085-1.065 2.134-1.853 3.02-.175.196-.368.444-.659.342-.362-.14-.47-.776-.463-.99L11.647.908c-.07-.553-.187-.801-.706-.909H7.649c-.438 0-.66.182-.895.472-.134.169-.175.278.103.334.545.11.855.485.936 1.065.13.928.121 1.86.046 2.792a2.717 2.717 0 0 1-.167.796c-.16.401-.417.482-.755.235-.304-.222-.519-.535-.73-.85-.79-1.183-1.419-2.458-1.933-3.798-.148-.388-.405-.622-.791-.629A77.229 77.229 0 0 0 .609.417c-.57.01-.742.305-.508.856C1.136 3.715 2.29 6.089 3.794 8.25z"/></svg>